<svg xmlns="http://www.w3.org/2000/svg" xmlns:xlink="http://www.w3.org/1999/xlink" width="108" height="35" viewBox="0 0 108 35"><defs><path id="a" d="M1310.974 7662.957c.077.225-.325 1.064-.325 1.064s-.876 2.34-4.324 2.318c-.506-.004-3.945-.384-2.41-4.924.225-.668 1.23-4.22 2.388-8.077-.252.011-.495.018-.721.018l-3.249.002c.275 2.45.418 2.903.37 5.587-.027 1.42-.349 8.72-2.028 11.794-1.412 2.586-2.778 3.012-3.684 3.204-.865.183-2.686-.017-3.371-1.31-.856-1.615.055-4.555.055-4.555l1.974-5.936c-1.053 2.029-2.618 4.138-4.534 4.008-1.979-.134-2.027-1.653-2.027-1.653s-1.142 1.751-3.416 1.653c-2.89-.126-3.094-2.1-3.094-2.1s-2.115 2.15-3.832 2.1c-.727-.02-1.57-.017-2.191-.806-.654-.832-.446-1.956-.08-3.038.59-1.75.896-2.69 1.13-3.575-.094.097-.777 1.243-2.229 1.376-.324.029-.723.037-.998-.006-.7 3.01-2.077 4.594-3.11 5.275-2.293 1.514-6.01 1.3-7.826-.853-1.416-1.68-1.923-4.307-.912-7.947a13.633 13.633 0 0 1 3.552-6.02c2.273-2.244 4.439-2.788 6.656-2.52 1.413.172 3.963 1.174 4.212 3.594a10.24 10.24 0 0 1 1.704-1.04c3.068-1.49 6.29-.732 10.3-.213 3.86.5 7.067.567 10.46.317.197-.563.385-1.076.385-1.076s1.479-4.762 2.27-7.284c.41-1.31.825-2.043 1.45-2.43.992-.616 2.598-.466 3.187.349.475.658.9 2.44-.561 5.006-.76 1.333-2.139 3.81-2.62 4.359l-.356.692a136.27 136.27 0 0 0 3.974-.571l.277-.044c1.09-3.469 2.142-6.515 2.678-7.165.44-.532 1.69-1.204 2.524-1.613.458-.226.657.124.657.124l-2.448 8.062c4.298-.814 6.393-1.492 6.393-1.492s-.876 2.34-2.41 3.83c-.612.594-2.874 1.184-5.201 1.55-1.348 4.048-2.09 6.415-2.315 7.166-.383 1.282-1.689 4.491-.155 4.503.865.005 1.01-1.505 1.315-1.703.658-.425 2.297-.638 2.516 0zm-8.135-13.364c.2-.303 1.151-1.942 1.675-2.745 1.461-2.235 2.009-4.628 1.753-5.319-.255-.69-.827-.042-1.066.713-.549 1.734-1.87 5.907-2.362 7.351zm-29.454 7.03c-.337-.345-1.33-.323-1.15.726.219 1.277 1.26 1.579 1.48 1.579 0 0 .487-1.471-.33-2.306zm16.479 1.22s.228-1.349-1.014-1.514c-.896-.118-1.735.825-2.548 2.639-.84 1.875-1.082 3.137-1.031 3.843.11 1.53 1.5 1.606 2.319 1.085.514-.327 1.215-1.233 1.58-2.467.454-1.533.78-2.93.694-3.586zm6.721 1.483l1.99-5.98c-3.367-.036-5.252-.166-8.744-.628-6.035-.8-10.533-1.292-12.272.638-1.147 1.272-1.89 1.034-2.149.773-.087-.089-.042-.285-.042-.285l.074-.31c.443-2.16-1.283-3.46-3.164-3.038-1.586.355-3 1.343-4.461 4.37-1.462 3.026-1.703 6.6-.75 7.966 1.23 1.762 3.313 1.896 4.794.1.877-1.065 1.343-2.098 1.524-2.958-.705-.154-1.735-1.029-2.008-1.933-.273-.9-.128-1.791.53-2.216.515-.334 1.934-.526 2.52.815.51 1.171.098 2.391.098 2.391.142.11 1.119.237 1.818-.347.945-.79 1.614-2.769 2.622-3.324.62-.342 2.849-.215 2.849-.215s-.968 3.208-1.534 4.951c-.363 1.117-1.2 3.296-.767 3.735 1.004 1.02 2.754-.876 2.754-.876s-.064-3.401 2.821-6.132c1.2-1.136 2.447-1.761 3.981-1.678 1.534.083 1.525 1.316 1.525 1.316s.59-.898.877-1.101c.62-.439 2.63-.215 2.63-.215s-1.764 5.534-2.076 6.461c-.186.553-.775 2.465.213 2.455 1.818-.02 3.36-2.561 4.347-4.735zm4.861-5.243l-4.88 15.077s-.371 1.257-.17 1.807c.154.42.445.608 1.065.364.669-.261 1.565-.881 2.647-3.528 1.06-2.59 2.079-8.679 1.338-13.72zm59.132-.872l-1.013 3.223c1.534-2.34 5.485-2.134 5.348 0-.22 3.405-2.5 4.256-3.814 4.894-1.481.72-2.25.578-2.76.638.088.022 1.643.046 2.191.426 1.534 1.064.656 2.34 1.534 2.34.438 0 .664-.636.808-1.063.288-.852.945-.852.945-.852s1.028-.14 1.343-.08c.86.164.451.764.301 1.19-.066.186-.486 1.01-.676 1.249-.749.94-2.3 1.07-3.248 1.046-1.453-.037-2.103-.851-2.103-2.128 0-1.504-1.753-1.49-1.753-1.49l-1.081 2.98s-.138.66-.576.66c-.603 0-.902-.039-1.998-.039-.657 0-.494-.622-.494-.622l1.2-3.353s-2.173 4.014-4.518 3.988c-.726-.009-1.57-.017-2.191-.807-.654-.83-.446-1.955-.08-3.038.591-1.748 1.38-3.691 1.19-3.598-1.386.674-2.323.076-2.51-.021-.623.841-1.228 1.237-2.092 1.595-1.416 6.715-6.843 6.61-8.491 4.809-.997-1.088-1.146-2.736-.668-4.592-.238.182-.7.357-1.14.364-.439.007-.855-.153-.894-.16-.237.95-.61 2.172-1.078 2.899-1.974 3.067-4.602 2.765-5.663 1.914-.609-.488-1.084-1.04-1.522-1.89a4.894 4.894 0 0 1-1.753 1.915c-1.27.81-4.239 1.177-6.055-.976-1.417-1.68-1.923-4.306-.913-7.947.877-3.158 2.67-5.187 3.552-6.02 2.073-1.958 4.702-2.857 6.63-2.768 3.769.174 4.646 2.095 4.72 3.486.412-.293.904-.599 1.49-.882 3.067-1.49 6.07-.945 10.08-.426 5.543.718 9.899.693 15.286.018.191-.55.37-1.04.37-1.04s1.48-4.762 2.27-7.284c.411-1.31.826-2.044 1.45-2.43.993-.616 2.6-.467 3.188.348.475.658 1.039 2.076-.561 5.007-.735 1.345-2.139 3.81-2.62 4.359l-.347.498c6.288-1.03 8.138-2.03 8.138-2.03s-.876 2.457-2.41 3.946c-.84.817-4.664 1.541-7.012 1.744zm.945-4.183c.201-.303 1.151-1.942 1.675-2.745 1.461-2.235 2.01-4.628 1.754-5.319-.256-.69-.828-.043-1.067.712-.548 1.734-1.87 5.908-2.362 7.352zm-34.256 7.43c-.018-.751-.768-1.236-1.315-.213-.612 1.145 0 3.405 0 3.405s1.363-1.153 1.314-3.192zm15.293.189c-.657-.638-2.464-.425-3.725 2.553-.7 1.654-.902 3.096-.658 4.043.439 1.702 3.507 1.702 4.656-2.34.01-.069.043-.206.056-.274-.036 0-2.959-.152-2.74-1.642.099-.666 1.315-.425 2.411-.425.265 0 .504-.003.723-.009.039-.667-.109-1.31-.723-1.906zm4.698-.513c-.194-.536-.885-.533-1.1-.106-.502.997.516 1.537.486 1.56.448-.284.764-1.037.614-1.454zm10.008-2.857c-4.257.025-9.817.036-14.44-.862-6.363-1.235-8.973-1.075-10.957.852-1.973 1.915-2.532.85-2.471.58.14-.629.248-1.493.185-2.013-.14-1.146-.833-1.937-2.39-1.972-1.973-.043-4.21.992-5.671 4.019-1.461 3.027-2.123 7.173-1.049 8.535 1.362 1.726 3.861.092 3.91-.933-.16-.472-1.797-5.455.89-6.898 1.326-.712 5.28.384.898 6.554-.22 1.49 3.068 4.894 5.213 1.04.438-.788.56-1.771.615-2.674-.773-1.028-1.255-2.267-.853-3.256.33-.81 1.235-.888 1.593-.763.91.32 1.093 1.496.915 3.542.195.297.465.354.798.385 1.054.099 1.406-.442 1.519-.556 1.143-2.507 3.448-3.92 5.204-3.908 2.764.02 3.456 1.76 3.537 3.494.706-.048 1.034-.173 1.163-.314-.425-.373-.662-1.082-.713-1.357-.15-.824.18-1.389.695-1.649.474-.239 1.418-.345 1.926.47.682 1.095-.476 2.4-.476 2.4.184.18.723.322 1.39-.282.653-.593 1.386-1.724 1.533-1.915.658-.851 3.052-.583 3.052-.583s-.863 2.67-1.43 4.413c-.362 1.117-1.378 3.725-1.095 4.255.514.963 2.066-.72 2.066-.72 1.557-1.508 3.121-5.501 3.121-5.501s.722-2.41 1.322-4.383zm1.642 5.072l-.858 2.553s2.522.385 3.926-2.34c1.753-3.404-1.973-2.553-3.068-.213z"/></defs><use fill="#26272d" xlink:href="#a" transform="translate(-1262 -7639)"/></svg>