<svg xmlns="http://www.w3.org/2000/svg" xmlns:xlink="http://www.w3.org/1999/xlink" width="16" height="15" viewBox="0 0 16 15"><defs><path id="a" d="M424.64 7479.008h-3.428v-10.119h3.428zm-1.714-11.5h-.023c-1.15 0-1.894-.777-1.894-1.748 0-.993.766-1.749 1.94-1.749 1.173 0 1.895.756 1.916 1.749 0 .971-.743 1.748-1.94 1.748zm3.613 11.5s.045-9.17 0-10.119h3.43v1.433c.455-.69 1.27-1.67 3.09-1.67 2.255 0 3.948 1.445 3.948 4.554v5.802h-3.43v-5.413c0-1.36-.496-2.289-1.738-2.289-.946 0-1.51.626-1.757 1.23-.093.216-.114.52-.114.821v5.651z"/></defs><use fill="#26272d" xlink:href="#a" opacity=".3" transform="translate(-421 -7464)"/></svg>