<svg xmlns="http://www.w3.org/2000/svg" xmlns:xlink="http://www.w3.org/1999/xlink" width="14" height="17" viewBox="0 0 14 17"><defs><path id="a" d="M386.74 7475.246c-.472 2.342-1.05 4.588-2.76 5.762-.527-3.541.776-6.2 1.38-9.023-1.03-1.641.125-4.945 2.3-4.13 2.676 1-2.318 6.101 1.035 6.739 3.5.665 4.93-5.743 2.759-7.827-3.136-3.009-9.13-.068-8.393 4.24.18 1.053 1.33 1.373.46 2.826-2.007-.42-2.606-1.917-2.53-3.913.125-3.267 3.105-5.554 6.094-5.87 3.78-.401 7.328 1.312 7.818 4.674.551 3.795-1.706 7.905-5.749 7.609-1.095-.08-1.555-.593-2.414-1.087z"/></defs><use fill="#26272d" xlink:href="#a" opacity=".3" transform="translate(-381 -7464)"/></svg>