<svg xmlns="http://www.w3.org/2000/svg" xmlns:xlink="http://www.w3.org/1999/xlink" width="17" height="14" viewBox="0 0 17 14"><defs><path id="a" d="M232 7466.658a6.93 6.93 0 0 1-2.003.557 3.538 3.538 0 0 0 1.533-1.955 6.928 6.928 0 0 1-2.215.858 3.458 3.458 0 0 0-2.545-1.117c-1.926 0-3.488 1.582-3.488 3.534 0 .278.032.547.09.806-2.897-.148-5.466-1.555-7.186-3.693-.3.522-.472 1.13-.472 1.777 0 1.226.616 2.308 1.551 2.942a3.452 3.452 0 0 1-1.58-.443v.045c0 1.712 1.202 3.14 2.798 3.465a3.465 3.465 0 0 1-1.575.06c.444 1.404 1.732 2.426 3.258 2.454a6.939 6.939 0 0 1-4.332 1.513c-.28 0-.559-.016-.832-.049a9.78 9.78 0 0 0 5.346 1.588c6.414 0 9.922-5.385 9.922-10.055 0-.154-.004-.305-.01-.456a7.148 7.148 0 0 0 1.74-1.83z"/></defs><use fill="#26272d" xlink:href="#a" opacity=".3" transform="translate(-215 -7465)"/></svg>