<svg xmlns="http://www.w3.org/2000/svg" xmlns:xlink="http://www.w3.org/1999/xlink" width="24" height="15" viewBox="0 0 24 15"><defs><path id="t2xca" d="M300.615 7478.999c-4.205 0-7.614-3.357-7.614-7.5 0-4.14 3.409-7.499 7.614-7.499 1.98 0 3.783.745 5.137 1.966l-2.244 2.164a4.503 4.503 0 0 0-2.893-1.045c-2.475 0-4.482 1.977-4.482 4.415 0 2.438 2.007 4.414 4.482 4.414a4.48 4.48 0 0 0 4.19-2.848h-4.286v-3.132h7.544c.109.505.166 1.029.166 1.566 0 4.142-3.409 7.499-7.614 7.499zm16.385-6.93h-2.65v2.611h-1.928v-2.61h-2.65v-1.899h2.65v-2.61h1.928v2.61H317z"/></defs><g><g opacity=".3" transform="translate(-293 -7464)"><use fill="#26272d" xlink:href="#t2xca"/></g></g></svg>