<svg xmlns="http://www.w3.org/2000/svg" xmlns:xlink="http://www.w3.org/1999/xlink" width="140" height="12" viewBox="0 0 140 12"><defs><path id="s89pa" d="M224.855 7251.77l-4.56-7.408h-.048l.064 7.408h-2.656v-11.329h3.12l4.544 7.393h.048l-.064-7.393h2.656v11.329zm5.44 0v-11.329h7.616v2.305h-4.976v2.143h4.704v2.192h-4.704v2.352h5.264v2.337zm21.712 0h-2.704l-2.24-7.664h-.048l-2.24 7.664h-2.72l-3.216-11.329h2.944l1.792 7.536h.048l2.016-7.536h2.848l2.032 7.536h.048l1.824-7.536h2.848zm4.608-11.329h3.456a7.01 7.01 0 0 1 1.664.185c.5.122.928.312 1.28.567.352.257.624.582.816.977.192.394.288.87.288 1.424 0 .565-.104 1.05-.312 1.455a2.67 2.67 0 0 1-.864.992 3.864 3.864 0 0 1-1.312.569 6.966 6.966 0 0 1-1.64.184h-1.792v4.976h-1.584zm1.584 5.009h1.68a5.11 5.11 0 0 0 1.064-.104 2.64 2.64 0 0 0 .84-.32 1.5 1.5 0 0 0 .544-.569c.128-.234.191-.522.191-.863 0-.342-.066-.627-.2-.857a1.613 1.613 0 0 0-.543-.56 2.324 2.324 0 0 0-.824-.303 5.768 5.768 0 0 0-1.04-.088h-1.712zm9.52 6.32h-1.585v-11.329h3.632c.544 0 1.062.057 1.552.168.49.113.92.292 1.288.537.368.245.659.568.872.968.214.4.32.887.32 1.463 0 .833-.256 1.505-.768 2.016-.512.513-1.173.838-1.984.976l3.168 5.2h-1.92l-2.88-5.04h-1.696zm0-6.368h1.823c.374 0 .72-.033 1.04-.096.32-.065.6-.168.84-.312s.43-.331.568-.56c.139-.23.208-.515.208-.857 0-.34-.07-.626-.208-.855a1.608 1.608 0 0 0-.552-.552 2.425 2.425 0 0 0-.808-.296 5.227 5.227 0 0 0-.976-.088h-1.936zm19.663.688c0 .874-.152 1.677-.456 2.408a5.705 5.705 0 0 1-1.256 1.887 5.628 5.628 0 0 1-1.904 1.232 6.416 6.416 0 0 1-2.4.44 6.353 6.353 0 0 1-2.392-.44 5.642 5.642 0 0 1-1.896-1.232 5.6 5.6 0 0 1-1.248-1.887c-.298-.731-.448-1.534-.448-2.408 0-.885.15-1.694.448-2.424a5.438 5.438 0 0 1 1.248-1.873 5.683 5.683 0 0 1 1.896-1.208 6.47 6.47 0 0 1 2.392-.432c.864 0 1.664.145 2.4.432.736.288 1.37.691 1.904 1.208a5.539 5.539 0 0 1 1.256 1.873c.304.73.456 1.539.456 2.424zm-1.712 0c0-.62-.101-1.203-.304-1.752a4.45 4.45 0 0 0-.864-1.448 4.037 4.037 0 0 0-1.352-.984c-.528-.24-1.122-.36-1.784-.36-.65 0-1.24.12-1.768.36a3.95 3.95 0 0 0-1.344.984 4.52 4.52 0 0 0-.856 1.448 5.018 5.018 0 0 0-.304 1.752c0 .629.102 1.221.304 1.776.203.554.49 1.037.864 1.448.374.41.822.733 1.344.968.523.235 1.11.352 1.76.352.65 0 1.243-.117 1.776-.352a3.988 3.988 0 0 0 1.36-.968c.374-.411.661-.894.864-1.448a5.137 5.137 0 0 0 .304-1.776zm7.44 3.632h.048l3.408-9.28h1.712l-4.448 11.328h-1.472l-4.416-11.329h1.76zm8.096 2.048h-1.584v-11.329h1.584zm2.752-11.329h3.888c.726 0 1.45.107 2.176.32.726.214 1.382.55 1.968 1.008a5.165 5.165 0 0 1 1.424 1.76c.363.715.544 1.574.544 2.577 0 .97-.181 1.81-.544 2.52a5.254 5.254 0 0 1-1.424 1.76 6.12 6.12 0 0 1-1.968 1.04c-.725.23-1.45.344-2.176.344h-3.888zm1.584 9.937h1.984c.683 0 1.315-.096 1.896-.288a4.384 4.384 0 0 0 1.504-.833c.422-.362.75-.81.984-1.344.235-.533.352-1.135.352-1.807 0-.704-.117-1.323-.352-1.856a3.654 3.654 0 0 0-.984-1.336 4.346 4.346 0 0 0-1.504-.816 6.17 6.17 0 0 0-1.896-.28h-1.984zm12.176-.016h5.92v1.408h-7.504v-11.329h7.264v1.393h-5.68v3.391h5.344v1.36h-5.344zm16.016-.865h.032v-9.056h1.584v11.329h-2l-5.984-9.248h-.032v9.248h-1.584v-11.329h2.064zm14.08.512a5.085 5.085 0 0 1-1.744 1.48c-.715.379-1.574.568-2.576.568a6.354 6.354 0 0 1-2.392-.44 5.557 5.557 0 0 1-1.888-1.232 5.664 5.664 0 0 1-1.24-1.887c-.299-.731-.448-1.534-.448-2.408 0-.885.152-1.694.456-2.424a5.479 5.479 0 0 1 1.264-1.873 5.755 5.755 0 0 1 1.912-1.208 6.534 6.534 0 0 1 2.4-.432c.384 0 .773.038 1.168.113.394.074.773.186 1.136.336.362.149.693.333.992.551.298.22.554.472.768.76l-1.248.96c-.278-.384-.67-.7-1.176-.951a3.644 3.644 0 0 0-1.64-.376c-.662 0-1.256.12-1.784.36s-.979.567-1.352.984a4.44 4.44 0 0 0-.864 1.448 5.018 5.018 0 0 0-.304 1.752 5.3 5.3 0 0 0 .296 1.791c.197.556.48 1.038.848 1.448.368.412.816.734 1.344.969a4.308 4.308 0 0 0 1.768.352c.64 0 1.221-.128 1.744-.385a3.356 3.356 0 0 0 1.296-1.12zm3.2.352h5.92v1.409h-7.504v-11.329h7.264v1.393h-5.68v3.391h5.344v1.36h-5.344z"/></defs><g><g transform="translate(-217 -7240)"><use fill="#26272d" xlink:href="#s89pa"/></g></g></svg>