<svg xmlns="http://www.w3.org/2000/svg" width="392" height="609" viewBox="0 0 392 609"><defs><mask id="b" width="2" height="2" x="-1" y="-1"><path fill="#fff" d="M11 11h370v587H11z"/><path d="M21 11h125.01c-.007.332-.01.666-.01 1 0 27.614 22.386 50 50 50s50-22.386 50-50c0-.334-.003-.668-.01-1H371c5.523 0 10 4.477 10 10v567c0 5.523-4.477 10-10 10H21c-5.523 0-10-4.477-10-10V21c0-5.523 4.477-10 10-10z"/></mask><filter id="a" width="420" height="637" x="-14" y="-14" filterUnits="userSpaceOnUse"><feOffset in="SourceGraphic" result="FeOffset1060Out"/><feGaussianBlur in="FeOffset1060Out" result="FeGaussianBlur1061Out" stdDeviation="6 6"/></filter><clipPath id="c"><path d="M21 11h125.01c-.007.332-.01.666-.01 1 0 27.614 22.386 50 50 50s50-22.386 50-50c0-.334-.003-.668-.01-1H371c5.523 0 10 4.477 10 10v567c0 5.523-4.477 10-10 10H21c-5.523 0-10-4.477-10-10V21c0-5.523 4.477-10 10-10z"/></clipPath></defs><g filter="url(#a)"><path fill="none" d="M21 11h125.01c-.007.332-.01.666-.01 1 0 27.614 22.386 50 50 50s50-22.386 50-50c0-.334-.003-.668-.01-1H371c5.523 0 10 4.477 10 10v567c0 5.523-4.477 10-10 10H21c-5.523 0-10-4.477-10-10V21c0-5.523 4.477-10 10-10z" mask="url(&amp;quot;#b&amp;quot;)"/><path fill="#255381" fill-opacity=".08" d="M21 11h125.01c-.007.332-.01.666-.01 1 0 27.614 22.386 50 50 50s50-22.386 50-50c0-.334-.003-.668-.01-1H371c5.523 0 10 4.477 10 10v567c0 5.523-4.477 10-10 10H21c-5.523 0-10-4.477-10-10V21c0-5.523 4.477-10 10-10z"/></g><path fill="#fff" d="M21 11h125.01c-.007.332-.01.666-.01 1 0 27.614 22.386 50 50 50s50-22.386 50-50c0-.334-.003-.668-.01-1H371c5.523 0 10 4.477 10 10v567c0 5.523-4.477 10-10 10H21c-5.523 0-10-4.477-10-10V21c0-5.523 4.477-10 10-10z"/><g clip-path="url(#c)"><path fill="#a8c53a" d="M7-3h398v19H7z"/></g></svg>