<svg xmlns="http://www.w3.org/2000/svg" width="208" height="60" viewBox="0 0 208 60"><defs><clipPath id="bwyfa"><path fill="#fff" d="M27.406.375h153.188c14.911 0 27 12.088 27 27v5.25c0 14.911-12.089 27-27 27H27.406c-14.911 0-27-12.089-27-27v-5.25c0-14.912 12.089-27 27-27z"/></clipPath></defs><g><g opacity=".3"><path fill="#FFCB02" d="M27.406.375h153.188c14.911 0 27 12.088 27 27v5.25c0 14.911-12.089 27-27 27H27.406c-14.911 0-27-12.089-27-27v-5.25c0-14.912 12.089-27 27-27z"/><path fill="none" stroke="#fff" stroke-linecap="round" stroke-linejoin="round" stroke-miterlimit="50" stroke-width="4" d="M27.406.375h153.188c14.911 0 27 12.088 27 27v5.25c0 14.911-12.089 27-27 27H27.406c-14.911 0-27-12.089-27-27v-5.25c0-14.912 12.089-27 27-27z" clip-path="url(&quot;#bwyfa&quot;)"/></g></g></svg>