<svg xmlns="http://www.w3.org/2000/svg" width="1170" height="137" viewBox="0 0 1170 137"><defs><clipPath id="h350a"><path fill="#fff" d="M10 0h1150c5.523 0 10 4.478 10 10v117c0 5.523-4.477 10-10 10H10c-5.117 0-9.337-3.844-9.929-8.802-.047-.393-.07-9.793-.07-10.199V21c0-.386.021-11.77.064-12.145C.634 3.871 4.865.001 10 .001z"/></clipPath></defs><g><g><path fill="#fff" d="M10 0h1150c5.523 0 10 4.478 10 10v117c0 5.523-4.477 10-10 10H10c-5.117 0-9.337-3.844-9.929-8.802-.047-.393-.07-9.793-.07-10.199V21c0-.386.021-11.77.064-12.145C.634 3.871 4.865.001 10 .001z"/><path fill="none" stroke="#f4d3bb" stroke-linecap="round" stroke-linejoin="round" stroke-miterlimit="50" stroke-width="6" d="M10 0h1150c5.523 0 10 4.478 10 10v117c0 5.523-4.477 10-10 10H10c-5.117 0-9.337-3.844-9.929-8.802-.047-.393-.07-9.793-.07-10.199V21c0-.386.021-11.77.064-12.145C.634 3.871 4.865.001 10 .001z" clip-path="url(&quot;#h350a&quot;)"/></g></g></svg>